<mxfile host="65bd71144e">
    <diagram id="ovOvS2WxctgzWfFgArGl" name="Page-1">
        <mxGraphModel dx="2904" dy="465" grid="1" gridSize="10" guides="1" tooltips="1" connect="1" arrows="1" fold="1" page="1" pageScale="1" pageWidth="850" pageHeight="1100" math="0" shadow="0">
            <root>
                <mxCell id="0"/>
                <mxCell id="1" parent="0"/>
                <mxCell id="vEOPiB7WqupMvrTctifi-19" value="" style="edgeStyle=orthogonalEdgeStyle;rounded=0;orthogonalLoop=1;jettySize=auto;html=1;" parent="1" source="vEOPiB7WqupMvrTctifi-1" target="vEOPiB7WqupMvrTctifi-17" edge="1">
                    <mxGeometry relative="1" as="geometry"/>
                </mxCell>
                <mxCell id="8" style="edgeStyle=none;html=1;entryX=1;entryY=0.5;entryDx=0;entryDy=0;" parent="1" source="vEOPiB7WqupMvrTctifi-1" target="2" edge="1">
                    <mxGeometry relative="1" as="geometry"/>
                </mxCell>
                <mxCell id="vEOPiB7WqupMvrTctifi-1" value="Start" style="ellipse;whiteSpace=wrap;html=1;" parent="1" vertex="1">
                    <mxGeometry x="-1115" y="80" width="120" height="80" as="geometry"/>
                </mxCell>
                <mxCell id="vEOPiB7WqupMvrTctifi-12" value="" style="edgeStyle=orthogonalEdgeStyle;rounded=0;orthogonalLoop=1;jettySize=auto;html=1;" parent="1" source="vEOPiB7WqupMvrTctifi-10" target="vEOPiB7WqupMvrTctifi-11" edge="1">
                    <mxGeometry relative="1" as="geometry"/>
                </mxCell>
                <mxCell id="vEOPiB7WqupMvrTctifi-10" value="eventHandler" style="shape=process;whiteSpace=wrap;html=1;backgroundOutline=1;" parent="1" vertex="1">
                    <mxGeometry x="-1115" y="280" width="120" height="60" as="geometry"/>
                </mxCell>
                <mxCell id="vEOPiB7WqupMvrTctifi-14" value="" style="edgeStyle=orthogonalEdgeStyle;rounded=0;orthogonalLoop=1;jettySize=auto;html=1;" parent="1" source="vEOPiB7WqupMvrTctifi-11" target="vEOPiB7WqupMvrTctifi-13" edge="1">
                    <mxGeometry relative="1" as="geometry"/>
                </mxCell>
                <mxCell id="vEOPiB7WqupMvrTctifi-11" value="Display Menu&lt;br&gt;1) Display timetable&lt;br&gt;...&lt;br&gt;7) Quit program" style="rounded=1;whiteSpace=wrap;html=1;" parent="1" vertex="1">
                    <mxGeometry x="-1115" y="390" width="120" height="60" as="geometry"/>
                </mxCell>
                <mxCell id="vEOPiB7WqupMvrTctifi-24" value="int input" style="edgeStyle=orthogonalEdgeStyle;rounded=0;orthogonalLoop=1;jettySize=auto;html=1;" parent="1" source="vEOPiB7WqupMvrTctifi-13" target="vEOPiB7WqupMvrTctifi-21" edge="1">
                    <mxGeometry relative="1" as="geometry"/>
                </mxCell>
                <mxCell id="63" style="edgeStyle=none;html=1;" parent="1" target="40" edge="1">
                    <mxGeometry relative="1" as="geometry">
                        <mxPoint x="-1250" y="600" as="sourcePoint"/>
                    </mxGeometry>
                </mxCell>
                <mxCell id="vEOPiB7WqupMvrTctifi-13" value="User" style="shape=umlActor;verticalLabelPosition=bottom;verticalAlign=top;html=1;outlineConnect=0;" parent="1" vertex="1">
                    <mxGeometry x="-1270" y="510" width="30" height="60" as="geometry"/>
                </mxCell>
                <mxCell id="vEOPiB7WqupMvrTctifi-18" value="" style="edgeStyle=orthogonalEdgeStyle;rounded=0;orthogonalLoop=1;jettySize=auto;html=1;" parent="1" source="vEOPiB7WqupMvrTctifi-17" target="vEOPiB7WqupMvrTctifi-10" edge="1">
                    <mxGeometry relative="1" as="geometry"/>
                </mxCell>
                <mxCell id="53" style="edgeStyle=none;html=1;exitX=1;exitY=0;exitDx=0;exitDy=0;" parent="1" source="vEOPiB7WqupMvrTctifi-17" edge="1">
                    <mxGeometry relative="1" as="geometry">
                        <mxPoint x="-860" y="130" as="targetPoint"/>
                    </mxGeometry>
                </mxCell>
                <mxCell id="vEOPiB7WqupMvrTctifi-17" value="Set running = true;&lt;br&gt;while running:&lt;br&gt;if returned 1, set running = false" style="rounded=1;whiteSpace=wrap;html=1;" parent="1" vertex="1">
                    <mxGeometry x="-1114" y="190" width="120" height="60" as="geometry"/>
                </mxCell>
                <mxCell id="vEOPiB7WqupMvrTctifi-25" value="If input invalid" style="edgeStyle=orthogonalEdgeStyle;rounded=0;orthogonalLoop=1;jettySize=auto;html=1;exitX=1;exitY=0.5;exitDx=0;exitDy=0;entryX=0.5;entryY=1;entryDx=0;entryDy=0;" parent="1" source="vEOPiB7WqupMvrTctifi-21" target="vEOPiB7WqupMvrTctifi-26" edge="1">
                    <mxGeometry relative="1" as="geometry">
                        <mxPoint x="-880" y="460" as="targetPoint"/>
                        <Array as="points">
                            <mxPoint x="-995" y="520"/>
                            <mxPoint x="-880" y="520"/>
                        </Array>
                    </mxGeometry>
                </mxCell>
                <mxCell id="vEOPiB7WqupMvrTctifi-29" value="Any valid option" style="edgeStyle=orthogonalEdgeStyle;rounded=0;orthogonalLoop=1;jettySize=auto;html=1;" parent="1" source="vEOPiB7WqupMvrTctifi-21" target="vEOPiB7WqupMvrTctifi-28" edge="1">
                    <mxGeometry relative="1" as="geometry"/>
                </mxCell>
                <mxCell id="51" value="If option to exit" style="edgeStyle=none;html=1;entryX=1;entryY=0.25;entryDx=0;entryDy=0;exitX=1;exitY=0.75;exitDx=0;exitDy=0;" parent="1" source="vEOPiB7WqupMvrTctifi-21" target="vEOPiB7WqupMvrTctifi-17" edge="1">
                    <mxGeometry x="-0.7192" relative="1" as="geometry">
                        <mxPoint x="-790" y="540" as="targetPoint"/>
                        <Array as="points">
                            <mxPoint x="-730" y="555"/>
                            <mxPoint x="-730" y="205"/>
                        </Array>
                        <mxPoint as="offset"/>
                    </mxGeometry>
                </mxCell>
                <mxCell id="vEOPiB7WqupMvrTctifi-21" value="Process input" style="rounded=1;whiteSpace=wrap;html=1;" parent="1" vertex="1">
                    <mxGeometry x="-1115" y="510" width="120" height="60" as="geometry"/>
                </mxCell>
                <mxCell id="vEOPiB7WqupMvrTctifi-27" style="edgeStyle=orthogonalEdgeStyle;rounded=0;orthogonalLoop=1;jettySize=auto;html=1;" parent="1" source="vEOPiB7WqupMvrTctifi-26" edge="1">
                    <mxGeometry relative="1" as="geometry">
                        <mxPoint x="-994" y="230" as="targetPoint"/>
                        <Array as="points">
                            <mxPoint x="-880" y="230"/>
                            <mxPoint x="-994" y="230"/>
                        </Array>
                    </mxGeometry>
                </mxCell>
                <mxCell id="vEOPiB7WqupMvrTctifi-26" value="Tell user about invalid input; return 1;" style="rounded=1;whiteSpace=wrap;html=1;" parent="1" vertex="1">
                    <mxGeometry x="-940" y="340" width="120" height="60" as="geometry"/>
                </mxCell>
                <mxCell id="41" style="edgeStyle=none;html=1;entryX=0.35;entryY=0.52;entryDx=0;entryDy=0;entryPerimeter=0;" parent="1" source="vEOPiB7WqupMvrTctifi-28" target="40" edge="1">
                    <mxGeometry relative="1" as="geometry"/>
                </mxCell>
                <mxCell id="vEOPiB7WqupMvrTctifi-28" value="Necessary functions" style="rounded=1;whiteSpace=wrap;html=1;" parent="1" vertex="1">
                    <mxGeometry x="-1115" y="600" width="120" height="60" as="geometry"/>
                </mxCell>
                <mxCell id="5" value="" style="edgeStyle=none;html=1;" parent="1" source="2" target="4" edge="1">
                    <mxGeometry relative="1" as="geometry"/>
                </mxCell>
                <mxCell id="2" value="loadFile()" style="shape=process;whiteSpace=wrap;html=1;backgroundOutline=1;" parent="1" vertex="1">
                    <mxGeometry x="-1430" y="90" width="120" height="60" as="geometry"/>
                </mxCell>
                <mxCell id="12" style="edgeStyle=none;html=1;" parent="1" source="4" target="11" edge="1">
                    <mxGeometry relative="1" as="geometry"/>
                </mxCell>
                <mxCell id="4" value="Read file" style="rounded=1;whiteSpace=wrap;html=1;" parent="1" vertex="1">
                    <mxGeometry x="-1430" y="300" width="120" height="60" as="geometry"/>
                </mxCell>
                <mxCell id="7" style="edgeStyle=none;html=1;entryX=1;entryY=0.5;entryDx=0;entryDy=0;" parent="1" source="6" target="4" edge="1">
                    <mxGeometry relative="1" as="geometry">
                        <Array as="points">
                            <mxPoint x="-1240" y="330"/>
                        </Array>
                    </mxGeometry>
                </mxCell>
                <mxCell id="6" value="Timetable text file" style="shape=internalStorage;whiteSpace=wrap;html=1;backgroundOutline=1;" parent="1" vertex="1">
                    <mxGeometry x="-1280" width="80" height="80" as="geometry"/>
                </mxCell>
                <mxCell id="98" style="edgeStyle=none;html=1;entryX=0.55;entryY=0.497;entryDx=0;entryDy=0;entryPerimeter=0;" parent="1" source="11" target="40" edge="1">
                    <mxGeometry relative="1" as="geometry"/>
                </mxCell>
                <mxCell id="11" value="Vector of subject structs" style="shape=hexagon;perimeter=hexagonPerimeter2;whiteSpace=wrap;html=1;fixedSize=1;" parent="1" vertex="1">
                    <mxGeometry x="-1430" y="590" width="120" height="80" as="geometry"/>
                </mxCell>
                <mxCell id="45" style="edgeStyle=none;html=1;" parent="1" source="13" target="vEOPiB7WqupMvrTctifi-13" edge="1">
                    <mxGeometry relative="1" as="geometry"/>
                </mxCell>
                <mxCell id="92" value="" style="edgeStyle=none;html=1;" parent="1" source="13" target="91" edge="1">
                    <mxGeometry relative="1" as="geometry"/>
                </mxCell>
                <mxCell id="13" value="printSessions()" style="shape=process;whiteSpace=wrap;html=1;backgroundOutline=1;" parent="1" vertex="1">
                    <mxGeometry x="-1150" y="750" width="120" height="60" as="geometry"/>
                </mxCell>
                <mxCell id="34" style="edgeStyle=none;html=1;" parent="1" source="17" target="33" edge="1">
                    <mxGeometry relative="1" as="geometry"/>
                </mxCell>
                <mxCell id="17" value="addSession()" style="shape=process;whiteSpace=wrap;html=1;backgroundOutline=1;" parent="1" vertex="1">
                    <mxGeometry x="-1320" y="750" width="120" height="60" as="geometry"/>
                </mxCell>
                <mxCell id="31" style="edgeStyle=none;html=1;entryX=0;entryY=0.5;entryDx=0;entryDy=0;" parent="1" source="20" target="6" edge="1">
                    <mxGeometry relative="1" as="geometry">
                        <Array as="points">
                            <mxPoint x="-1630" y="40"/>
                            <mxPoint x="-1620" y="40"/>
                        </Array>
                    </mxGeometry>
                </mxCell>
                <mxCell id="96" value="" style="edgeStyle=none;html=1;" parent="1" source="20" target="95" edge="1">
                    <mxGeometry relative="1" as="geometry"/>
                </mxCell>
                <mxCell id="20" value="saveChanges()" style="shape=process;whiteSpace=wrap;html=1;backgroundOutline=1;" parent="1" vertex="1">
                    <mxGeometry x="-1690" y="750" width="120" height="60" as="geometry"/>
                </mxCell>
                <mxCell id="67" value="" style="edgeStyle=none;html=1;" parent="1" source="21" target="66" edge="1">
                    <mxGeometry relative="1" as="geometry"/>
                </mxCell>
                <mxCell id="21" value="deleteSession()" style="shape=process;whiteSpace=wrap;html=1;backgroundOutline=1;" parent="1" vertex="1">
                    <mxGeometry x="-1500" y="750" width="120" height="60" as="geometry"/>
                </mxCell>
                <mxCell id="70" value="" style="edgeStyle=none;html=1;" parent="1" source="33" target="69" edge="1">
                    <mxGeometry relative="1" as="geometry"/>
                </mxCell>
                <mxCell id="33" value="Ask for code, day of week, hour, and minute" style="rounded=1;whiteSpace=wrap;html=1;" parent="1" vertex="1">
                    <mxGeometry x="-1320" y="880" width="120" height="60" as="geometry"/>
                </mxCell>
                <mxCell id="73" value="" style="edgeStyle=none;html=1;" parent="1" source="38" target="72" edge="1">
                    <mxGeometry relative="1" as="geometry"/>
                </mxCell>
                <mxCell id="38" value="printTimetable()" style="shape=process;whiteSpace=wrap;html=1;backgroundOutline=1;" parent="1" vertex="1">
                    <mxGeometry x="-810" y="750" width="120" height="60" as="geometry"/>
                </mxCell>
                <mxCell id="40" value="" style="shape=curlyBracket;whiteSpace=wrap;html=1;rounded=1;flipH=1;direction=south;" parent="1" vertex="1">
                    <mxGeometry x="-1700" y="710" width="1020" height="20" as="geometry"/>
                </mxCell>
                <mxCell id="59" value="" style="edgeStyle=none;html=1;" parent="1" source="43" target="58" edge="1">
                    <mxGeometry relative="1" as="geometry"/>
                </mxCell>
                <mxCell id="43" value="editSession()" style="shape=process;whiteSpace=wrap;html=1;backgroundOutline=1;" parent="1" vertex="1">
                    <mxGeometry x="-980" y="750" width="120" height="60" as="geometry"/>
                </mxCell>
                <mxCell id="52" value="Ask to save changes;&lt;br&gt;Call saveChanges() if yes; return 1;" style="rounded=1;whiteSpace=wrap;html=1;" parent="1" vertex="1">
                    <mxGeometry x="-790" y="340" width="120" height="60" as="geometry"/>
                </mxCell>
                <mxCell id="54" value="Close loop; Terminate program" style="html=1;whiteSpace=wrap;aspect=fixed;shape=isoRectangle;" parent="1" vertex="1">
                    <mxGeometry x="-860" y="80" width="150" height="90" as="geometry"/>
                </mxCell>
                <mxCell id="58" value="call deleteSession();&lt;br&gt;call addSession();" style="rounded=1;whiteSpace=wrap;html=1;" parent="1" vertex="1">
                    <mxGeometry x="-980" y="880" width="120" height="60" as="geometry"/>
                </mxCell>
                <mxCell id="64" value="Set deleted attribute of struct to true to be deleted when saving changes" style="rounded=1;whiteSpace=wrap;html=1;" parent="1" vertex="1">
                    <mxGeometry x="-1500" y="1000" width="120" height="60" as="geometry"/>
                </mxCell>
                <mxCell id="68" value="" style="edgeStyle=none;html=1;" parent="1" source="66" target="64" edge="1">
                    <mxGeometry relative="1" as="geometry"/>
                </mxCell>
                <mxCell id="66" value="call printSessions() and let the user choose option on list to delete" style="rounded=1;whiteSpace=wrap;html=1;" parent="1" vertex="1">
                    <mxGeometry x="-1500" y="880" width="120" height="60" as="geometry"/>
                </mxCell>
                <mxCell id="69" value="Add struct to vector and set added attribute to true" style="rounded=1;whiteSpace=wrap;html=1;" parent="1" vertex="1">
                    <mxGeometry x="-1320" y="1000" width="120" height="60" as="geometry"/>
                </mxCell>
                <mxCell id="78" value="" style="edgeStyle=none;html=1;" parent="1" source="71" target="75" edge="1">
                    <mxGeometry relative="1" as="geometry"/>
                </mxCell>
                <mxCell id="Cxssn6S2buvn5vn_BcZJ-107" style="edgeStyle=orthogonalEdgeStyle;rounded=0;orthogonalLoop=1;jettySize=auto;html=1;" parent="1" source="71" target="Cxssn6S2buvn5vn_BcZJ-101" edge="1">
                    <mxGeometry relative="1" as="geometry"/>
                </mxCell>
                <mxCell id="71" value="drawHeaders()" style="shape=process;whiteSpace=wrap;html=1;backgroundOutline=1;" parent="1" vertex="1">
                    <mxGeometry x="-810" y="1000" width="120" height="60" as="geometry"/>
                </mxCell>
                <mxCell id="74" value="" style="edgeStyle=none;html=1;" parent="1" source="72" target="71" edge="1">
                    <mxGeometry relative="1" as="geometry"/>
                </mxCell>
                <mxCell id="72" value="drwaBorders()" style="shape=process;whiteSpace=wrap;html=1;backgroundOutline=1;" parent="1" vertex="1">
                    <mxGeometry x="-810" y="880" width="120" height="60" as="geometry"/>
                </mxCell>
                <mxCell id="97" value="" style="edgeStyle=none;html=1;" parent="1" source="75" target="79" edge="1">
                    <mxGeometry relative="1" as="geometry"/>
                </mxCell>
                <mxCell id="75" value="Make list of time and print out in table row" style="rounded=1;whiteSpace=wrap;html=1;" parent="1" vertex="1">
                    <mxGeometry x="-810" y="1120" width="120" height="60" as="geometry"/>
                </mxCell>
                <mxCell id="82" value="" style="edgeStyle=none;html=1;" parent="1" source="79" target="81" edge="1">
                    <mxGeometry relative="1" as="geometry"/>
                </mxCell>
                <mxCell id="79" value="drawSessionRow()" style="shape=process;whiteSpace=wrap;html=1;backgroundOutline=1;" parent="1" vertex="1">
                    <mxGeometry x="-810" y="1240" width="120" height="60" as="geometry"/>
                </mxCell>
                <mxCell id="84" value="" style="edgeStyle=none;html=1;" parent="1" source="81" target="83" edge="1">
                    <mxGeometry relative="1" as="geometry"/>
                </mxCell>
                <mxCell id="81" value="Draw day of week column" style="rounded=1;whiteSpace=wrap;html=1;" parent="1" vertex="1">
                    <mxGeometry x="-630" y="1240" width="120" height="60" as="geometry"/>
                </mxCell>
                <mxCell id="86" style="edgeStyle=none;html=1;entryX=0;entryY=0.5;entryDx=0;entryDy=0;" parent="1" source="83" target="85" edge="1">
                    <mxGeometry relative="1" as="geometry"/>
                </mxCell>
                <mxCell id="88" value="" style="edgeStyle=none;html=1;" parent="1" source="83" target="87" edge="1">
                    <mxGeometry relative="1" as="geometry"/>
                </mxCell>
                <mxCell id="90" style="edgeStyle=none;html=1;entryX=-0.042;entryY=0.65;entryDx=0;entryDy=0;entryPerimeter=0;" parent="1" source="83" target="89" edge="1">
                    <mxGeometry relative="1" as="geometry"/>
                </mxCell>
                <mxCell id="83" value="check for conflict" style="rounded=1;whiteSpace=wrap;html=1;" parent="1" vertex="1">
                    <mxGeometry x="-450" y="1240" width="120" height="60" as="geometry"/>
                </mxCell>
                <mxCell id="Cxssn6S2buvn5vn_BcZJ-108" style="edgeStyle=orthogonalEdgeStyle;rounded=0;orthogonalLoop=1;jettySize=auto;html=1;entryX=1;entryY=0.5;entryDx=0;entryDy=0;" parent="1" source="85" target="Cxssn6S2buvn5vn_BcZJ-101" edge="1">
                    <mxGeometry relative="1" as="geometry">
                        <Array as="points">
                            <mxPoint x="-110" y="1180"/>
                            <mxPoint x="-110" y="1030"/>
                        </Array>
                    </mxGeometry>
                </mxCell>
                <mxCell id="85" value="return whitespace if none found in timeslot" style="rounded=1;whiteSpace=wrap;html=1;" parent="1" vertex="1">
                    <mxGeometry x="-270" y="1150" width="120" height="60" as="geometry"/>
                </mxCell>
                <mxCell id="Cxssn6S2buvn5vn_BcZJ-109" style="edgeStyle=orthogonalEdgeStyle;rounded=0;orthogonalLoop=1;jettySize=auto;html=1;entryX=1;entryY=0.5;entryDx=0;entryDy=0;" parent="1" source="87" target="Cxssn6S2buvn5vn_BcZJ-101" edge="1">
                    <mxGeometry relative="1" as="geometry">
                        <mxPoint x="-300" y="1030" as="targetPoint"/>
                        <Array as="points">
                            <mxPoint x="-110" y="1270"/>
                            <mxPoint x="-110" y="1030"/>
                        </Array>
                    </mxGeometry>
                </mxCell>
                <mxCell id="87" value="return class code if session found in timeslot" style="rounded=1;whiteSpace=wrap;html=1;" parent="1" vertex="1">
                    <mxGeometry x="-270" y="1240" width="120" height="60" as="geometry"/>
                </mxCell>
                <mxCell id="Cxssn6S2buvn5vn_BcZJ-110" style="edgeStyle=orthogonalEdgeStyle;rounded=0;orthogonalLoop=1;jettySize=auto;html=1;entryX=1;entryY=0.5;entryDx=0;entryDy=0;" parent="1" source="89" target="Cxssn6S2buvn5vn_BcZJ-101" edge="1">
                    <mxGeometry relative="1" as="geometry">
                        <Array as="points">
                            <mxPoint x="-110" y="1380"/>
                            <mxPoint x="-110" y="1030"/>
                        </Array>
                    </mxGeometry>
                </mxCell>
                <mxCell id="89" value="return conflict message if more than one found in timeslot" style="rounded=1;whiteSpace=wrap;html=1;" parent="1" vertex="1">
                    <mxGeometry x="-270" y="1350" width="120" height="60" as="geometry"/>
                </mxCell>
                <mxCell id="101" value="" style="edgeStyle=none;html=1;" parent="1" source="91" target="100" edge="1">
                    <mxGeometry relative="1" as="geometry"/>
                </mxCell>
                <mxCell id="91" value="check for unsaved changes" style="rounded=1;whiteSpace=wrap;html=1;" parent="1" vertex="1">
                    <mxGeometry x="-1150" y="880" width="120" height="60" as="geometry"/>
                </mxCell>
                <mxCell id="95" value="separate attributes with '|' and each class with '\n'" style="rounded=1;whiteSpace=wrap;html=1;" parent="1" vertex="1">
                    <mxGeometry x="-1690" y="880" width="120" height="60" as="geometry"/>
                </mxCell>
                <mxCell id="100" value="checkForConflict()" style="shape=process;whiteSpace=wrap;html=1;backgroundOutline=1;" parent="1" vertex="1">
                    <mxGeometry x="-1150" y="1000" width="120" height="60" as="geometry"/>
                </mxCell>
                <mxCell id="Cxssn6S2buvn5vn_BcZJ-103" value="" style="edgeStyle=orthogonalEdgeStyle;rounded=0;orthogonalLoop=1;jettySize=auto;html=1;" parent="1" source="Cxssn6S2buvn5vn_BcZJ-101" target="Cxssn6S2buvn5vn_BcZJ-102" edge="1">
                    <mxGeometry relative="1" as="geometry"/>
                </mxCell>
                <mxCell id="Cxssn6S2buvn5vn_BcZJ-101" value="drawCell(string)" style="shape=process;whiteSpace=wrap;html=1;backgroundOutline=1;" parent="1" vertex="1">
                    <mxGeometry x="-450" y="1000" width="120" height="60" as="geometry"/>
                </mxCell>
                <mxCell id="Cxssn6S2buvn5vn_BcZJ-102" value="Draw a cell and fill it with a string passed into it. e.g. &quot;|EXAMPLE&amp;nbsp; &amp;nbsp;&quot;" style="rounded=1;whiteSpace=wrap;html=1;" parent="1" vertex="1">
                    <mxGeometry x="-450" y="880" width="120" height="60" as="geometry"/>
                </mxCell>
            </root>
        </mxGraphModel>
    </diagram>
</mxfile>